{
  "accessors": [
    {
      "bufferView": 2,
      "componentType": 5126,
      "count": 65532,
      "max": [
        19.852340698242188,
        -0.350616991519928,
        7.024959087371826
      ],
      "min": [
        -4.289638042449951,
        -9.930688858032227,
        -7.18156623840332
      ],
      "type": "VEC3"
    },
    {
      "bufferView": 2,
      "byteOffset": 786384,
      "componentType": 5126,
      "count": 65532,
      "max": [
        1.0,
        0.9999988079071045,
        0.9999997615814209
      ],
      "min": [
        -1.0,
        -0.9999987483024597,
        -0.9999998807907104
      ],
      "type": "VEC3"
    },
    {
      "bufferView": 1,
      "componentType": 5126,
      "count": 65532,
      "max": [
        0.9997559785842896,
        0.9968259930610657
      ],
      "min": [
        0.00024399999529123306,
        0.00025499999173916876
      ],
      "type": "VEC2"
    },
    {
      "bufferView": 0,
      "componentType": 5125,
      "count": 176409,
      "type": "SCALAR"
    },
    {
      "bufferView": 2,
      "byteOffset": 1572768,
      "componentType": 5126,
      "count": 31649,
      "max": [
        19.8933162689209,
        -0.350616991519928,
        6.013960838317871
      ],
      "min": [
        -2.390052080154419,
        -9.867072105407715,
        -7.18156623840332
      ],
      "type": "VEC3"
    },
    {
      "bufferView": 2,
      "byteOffset": 1952556,
      "componentType": 5126,
      "count": 31649,
      "max": [
        0.999998152256012,
        0.9998833537101746,
        0.9999978542327881
      ],
      "min": [
        -0.9999889731407166,
        -0.999996542930603,
        -0.9999992847442627
      ],
      "type": "VEC3"
    },
    {
      "bufferView": 1,
      "byteOffset": 524256,
      "componentType": 5126,
      "count": 31649,
      "max": [
        0.9996820092201233,
        0.9938960075378418
      ],
      "min": [
        0.00024399999529123306,
        0.0002730000123847276
      ],
      "type": "VEC2"
    },
    {
      "bufferView": 0,
      "byteOffset": 705636,
      "componentType": 5125,
      "count": 68817,
      "type": "SCALAR"
    }
  ],
  "asset": {
    "extras": {
      "author": "artfletch (https://sketchfab.com/artfletch)",
      "license": "CC-BY-4.0 (http://creativecommons.org/licenses/by/4.0/)",
      "source": "https://sketchfab.com/3d-models/universal-carrier-7ae49e2042f447dc983a567b85423b8e",
      "title": "Universal Carrier"
    },
    "generator": "Sketchfab-12.50.0",
    "version": "2.0"
  },
  "bufferViews": [
    {
      "buffer": 0,
      "byteLength": 980904,
      "name": "floatBufferViews",
      "target": 34963
    },
    {
      "buffer": 0,
      "byteLength": 777448,
      "byteOffset": 980904,
      "byteStride": 8,
      "name": "floatBufferViews",
      "target": 34962
    },
    {
      "buffer": 0,
      "byteLength": 2332344,
      "byteOffset": 1758352,
      "byteStride": 12,
      "name": "floatBufferViews",
      "target": 34962
    }
  ],
  "buffers": [
    {
      "byteLength": 4090696,
      "uri": "scene.bin"
    }
  ],
  "images": [
    {
      "uri": "textures/NAMUniversalCarrier01_Model_4_u1_v1_baseColor.jpeg"
    }
  ],
  "materials": [
    {
      "doubleSided": true,
      "name": "NAMUniversalCarrier01_Model_4_u1_v1",
      "pbrMetallicRoughness": {
        "baseColorTexture": {
          "index": 0
        },
        "metallicFactor": 0.12331351196882087
      }
    }
  ],
  "meshes": [
    {
      "name": "Object_0",
      "primitives": [
        {
          "attributes": {
            "NORMAL": 1,
            "POSITION": 0,
            "TEXCOORD_0": 2
          },
          "indices": 3,
          "material": 0,
          "mode": 4
        }
      ]
    },
    {
      "name": "Object_1",
      "primitives": [
        {
          "attributes": {
            "NORMAL": 5,
            "POSITION": 4,
            "TEXCOORD_0": 6
          },
          "indices": 7,
          "material": 0,
          "mode": 4
        }
      ]
    }
  ],
  "nodes": [
    {
      "children": [
        1
      ],
      "matrix": [
        1.0,
        0.0,
        0.0,
        0.0,
        0.0,
        -1.0,
        -4.440892098500626e-16,
        0.0,
        0.0,
        4.440892098500626e-16,
        -1.0,
        0.0,
        0.0,
        -5.218966484069825,
        5.062326431274413,
        1.0
      ],
      "name": "Sketchfab_model"
    },
    {
      "children": [
        2,
        3
      ],
      "name": "NAMUniversalCarrier02.obj.cleaner.materialmerger.gles"
    },
    {
      "mesh": 0,
      "name": "Object_2"
    },
    {
      "mesh": 1,
      "name": "Object_3"
    }
  ],
  "samplers": [
    {
      "magFilter": 9729,
      "minFilter": 9987,
      "wrapS": 10497,
      "wrapT": 10497
    }
  ],
  "scene": 0,
  "scenes": [
    {
      "name": "Sketchfab_Scene",
      "nodes": [
        0
      ]
    }
  ],
  "textures": [
    {
      "sampler": 0,
      "source": 0
    }
  ]
}
